<svg width="22" height="20" viewBox="0 0 22 20" fill="none" xmlns="http://www.w3.org/2000/svg">
<path d="M8.70848 17.444C8.62802 17.444 8.54897 17.4229 8.47915 17.3829C8.40933 17.343 8.35117 17.2854 8.31045 17.216C6.77689 14.6034 2.68845 9.04036 2.64737 8.98446C2.58169 8.89518 2.55034 8.78524 2.55904 8.67474C2.56775 8.56424 2.61592 8.46057 2.69477 8.38266L3.95196 7.1403C4.02874 7.06442 4.12968 7.01787 4.23724 7.00872C4.34479 6.99957 4.45215 7.02841 4.54065 7.09022L8.61243 9.9333C11.3371 6.43945 13.868 4.0256 15.533 2.60125C17.4076 0.997956 18.6009 0.276156 18.6508 0.246433C18.7226 0.203396 18.8047 0.180663 18.8883 0.180664H20.9222C21.0158 0.180658 21.1071 0.209091 21.1842 0.262192C21.2612 0.315294 21.3203 0.390557 21.3536 0.478002C21.3869 0.565447 21.3928 0.660944 21.3706 0.751833C21.3484 0.842722 21.299 0.92471 21.2291 0.986926C15.4533 6.13142 9.17228 17.1006 9.10951 17.2108C9.06944 17.2812 9.01156 17.3397 8.9417 17.3807C8.87183 17.4216 8.79244 17.4434 8.71148 17.4439L8.70848 17.444Z" fill="#13498B"/>
<path d="M8.61995 19.3669C4.03909 19.3669 0.312256 15.6401 0.312256 11.0592C0.312256 6.47825 4.03909 2.75147 8.61995 2.75147C9.53845 2.75045 10.4507 2.90206 11.3195 3.20009C11.4353 3.23987 11.5305 3.32401 11.5843 3.43401C11.638 3.544 11.6458 3.67084 11.6061 3.78661C11.5663 3.90238 11.4821 3.99761 11.3721 4.05134C11.2621 4.10508 11.1353 4.11291 11.0195 4.07313C10.2471 3.80826 9.43609 3.67356 8.61953 3.67455C4.54761 3.67455 1.23492 6.98728 1.23492 11.0592C1.23492 15.131 4.54761 18.4438 8.61953 18.4438C12.6915 18.4438 16.0041 15.131 16.0041 11.0592C16.0043 10.5595 15.9541 10.0612 15.8543 9.57158C15.8422 9.51218 15.8419 9.45097 15.8534 9.39145C15.8649 9.33193 15.888 9.27526 15.9215 9.22468C15.9549 9.17409 15.9979 9.13059 16.0482 9.09665C16.0984 9.0627 16.1548 9.03898 16.2142 9.02685C16.2736 9.01471 16.3348 9.01439 16.3943 9.02591C16.4539 9.03743 16.5105 9.06055 16.5611 9.09397C16.6117 9.12739 16.6552 9.17044 16.6891 9.22068C16.7231 9.27091 16.7468 9.32733 16.7589 9.38673C16.8711 9.93714 16.9276 10.4974 16.9275 11.0592C16.9276 15.6401 13.2008 19.3669 8.61995 19.3669Z" fill="#13498B"/>
</svg>
